<svg viewBox="0 0 680 470" xmlns="http://www.w3.org/2000/svg" role="img" aria-label="Steering effect at alpha 64 versus baseline courage margin for five temptation framings; the five points fall on a rising line through the origin, effect follows baseline, r about 0.99."><line x1="95" y1="54" x2="95" y2="418" stroke="#888781" stroke-opacity="0.13" stroke-width="1"/><text x="95" y="434" fill="#8a8984" font-size="11" text-anchor="middle" font-family="sans-serif">-3</text><line x1="158" y1="54" x2="158" y2="418" stroke="#888781" stroke-opacity="0.13" stroke-width="1"/><text x="158" y="434" fill="#8a8984" font-size="11" text-anchor="middle" font-family="sans-serif">-2</text><line x1="221" y1="54" x2="221" y2="418" stroke="#888781" stroke-opacity="0.13" stroke-width="1"/><text x="221" y="434" fill="#8a8984" font-size="11" text-anchor="middle" font-family="sans-serif">-1</text><line x1="284" y1="54" x2="284" y2="418" stroke="#888781" stroke-opacity="0.5" stroke-width="1.3"/><text x="284" y="434" fill="#8a8984" font-size="11" text-anchor="middle" font-family="sans-serif">0</text><line x1="346" y1="54" x2="346" y2="418" stroke="#888781" stroke-opacity="0.13" stroke-width="1"/><text x="346" y="434" fill="#8a8984" font-size="11" text-anchor="middle" font-family="sans-serif">+1</text><line x1="409" y1="54" x2="409" y2="418" stroke="#888781" stroke-opacity="0.13" stroke-width="1"/><text x="409" y="434" fill="#8a8984" font-size="11" text-anchor="middle" font-family="sans-serif">+2</text><line x1="472" y1="54" x2="472" y2="418" stroke="#888781" stroke-opacity="0.13" stroke-width="1"/><text x="472" y="434" fill="#8a8984" font-size="11" text-anchor="middle" font-family="sans-serif">+3</text><line x1="535" y1="54" x2="535" y2="418" stroke="#888781" stroke-opacity="0.13" stroke-width="1"/><text x="535" y="434" fill="#8a8984" font-size="11" text-anchor="middle" font-family="sans-serif">+4</text><line x1="597" y1="54" x2="597" y2="418" stroke="#888781" stroke-opacity="0.13" stroke-width="1"/><text x="597" y="434" fill="#8a8984" font-size="11" text-anchor="middle" font-family="sans-serif">+5</text><line x1="660" y1="54" x2="660" y2="418" stroke="#888781" stroke-opacity="0.13" stroke-width="1"/><text x="660" y="434" fill="#8a8984" font-size="11" text-anchor="middle" font-family="sans-serif">+6</text><line x1="64" y1="378" x2="660" y2="378" stroke="#888781" stroke-opacity="0.13" stroke-width="1"/><text x="56" y="382" fill="#8a8984" font-size="11" text-anchor="end" font-family="sans-serif">-1</text><line x1="64" y1="297" x2="660" y2="297" stroke="#888781" stroke-opacity="0.5" stroke-width="1.3"/><text x="56" y="301" fill="#8a8984" font-size="11" text-anchor="end" font-family="sans-serif">0</text><line x1="64" y1="216" x2="660" y2="216" stroke="#888781" stroke-opacity="0.13" stroke-width="1"/><text x="56" y="220" fill="#8a8984" font-size="11" text-anchor="end" font-family="sans-serif">+1</text><line x1="64" y1="135" x2="660" y2="135" stroke="#888781" stroke-opacity="0.13" stroke-width="1"/><text x="56" y="139" fill="#8a8984" font-size="11" text-anchor="end" font-family="sans-serif">+2</text><line x1="64" y1="54" x2="660" y2="54" stroke="#888781" stroke-opacity="0.13" stroke-width="1"/><text x="56" y="58" fill="#8a8984" font-size="11" text-anchor="end" font-family="sans-serif">+3</text><line x1="64" y1="410" x2="660" y2="103" stroke="#8a8984" stroke-width="1.4" stroke-dasharray="6 4"/><text x="77" y="74" fill="#5f5e5a" font-size="13" font-family="sans-serif">r &#8776; 0.99</text><text x="77" y="107" fill="#8a8984" font-size="11.5" font-family="sans-serif" font-style="italic">dashed: effect &#8776; 0.4 &#215; baseline</text><text x="77" y="128" fill="#8a8984" font-size="11.5" font-family="sans-serif" font-style="italic">(steered &#8776; 1.4 &#215; control)</text><line x1="622" y1="136" x2="622" y2="87" stroke="#1baf7a" stroke-width="2"/><line x1="618" y1="136" x2="626" y2="136" stroke="#1baf7a" stroke-width="2"/><line x1="618" y1="87" x2="626" y2="87" stroke="#1baf7a" stroke-width="2"/><circle cx="622" cy="111" r="6" fill="#1baf7a"/><text x="633" y="115" fill="#1baf7a" font-size="12.5" text-anchor="start" font-family="sans-serif" font-weight="500">caro</text><line x1="572" y1="161" x2="572" y2="123" stroke="#2a78d6" stroke-width="2"/><line x1="568" y1="161" x2="576" y2="161" stroke="#2a78d6" stroke-width="2"/><line x1="568" y1="123" x2="576" y2="123" stroke="#2a78d6" stroke-width="2"/><circle cx="572" cy="141" r="6" fill="#2a78d6"/><text x="572" y="128" fill="#2a78d6" font-size="12.5" text-anchor="middle" font-family="sans-serif" font-weight="500">mundus</text><line x1="471" y1="208" x2="471" y2="146" stroke="#1a9a1a" stroke-width="2"/><line x1="467" y1="208" x2="475" y2="208" stroke="#1a9a1a" stroke-width="2"/><line x1="467" y1="146" x2="475" y2="146" stroke="#1a9a1a" stroke-width="2"/><circle cx="471" cy="177" r="6" fill="#1a9a1a"/><text x="471" y="199" fill="#1a9a1a" font-size="12.5" text-anchor="middle" font-family="sans-serif" font-weight="500">ratio</text><line x1="307" y1="305" x2="307" y2="248" stroke="#eda100" stroke-width="2"/><line x1="303" y1="305" x2="311" y2="305" stroke="#eda100" stroke-width="2"/><line x1="303" y1="248" x2="311" y2="248" stroke="#eda100" stroke-width="2"/><circle cx="307" cy="277" r="6" fill="#eda100"/><text x="307" y="264" fill="#eda100" font-size="12.5" text-anchor="middle" font-family="sans-serif" font-weight="500">diabolus</text><line x1="157" y1="382" x2="157" y2="320" stroke="#e34948" stroke-width="2"/><line x1="153" y1="382" x2="161" y2="382" stroke="#e34948" stroke-width="2"/><line x1="153" y1="320" x2="161" y2="320" stroke="#e34948" stroke-width="2"/><circle cx="157" cy="352" r="6" fill="#e34948"/><text x="157" y="374" fill="#e34948" font-size="12.5" text-anchor="middle" font-family="sans-serif" font-weight="500">ignatian</text><text x="362" y="464" fill="#8a8984" font-size="12.5" text-anchor="middle" font-family="sans-serif">baseline courage margin (no steering)</text><text x="16" y="236" fill="#8a8984" font-size="12.5" text-anchor="middle" font-family="sans-serif" transform="rotate(-90 16 236)">steering effect at &#945; = 64</text></svg>